<?xml version="1.0" standalone="yes"?><svg xmlns="http://www.w3.org/2000/svg" version="1.1" width="333" height="333" viewBox="0 0 333 333" shape-rendering="crispEdges"><rect x="0" y="0" width="333" height="333" fill="#fff"/><path fill="#000" d="M0 0h9v9H0V0M9 0h9v9H9V0M18 0h9v9H18V0M27 0h9v9H27V0M36 0h9v9H36V0M45 0h9v9H45V0M54 0h9v9H54V0M90 0h9v9H90V0M117 0h9v9H117V0M135 0h9v9H135V0M144 0h9v9H144V0M162 0h9v9H162V0M198 0h9v9H198V0M207 0h9v9H207V0M216 0h9v9H216V0M234 0h9v9H234V0M243 0h9v9H243V0M252 0h9v9H252V0M270 0h9v9H270V0M279 0h9v9H279V0M288 0h9v9H288V0M297 0h9v9H297V0M306 0h9v9H306V0M315 0h9v9H315V0M324 0h9v9H324V0M0 9h9v9H0V9M54 9h9v9H54V9M72 9h9v9H72V9M81 9h9v9H81V9M90 9h9v9H90V9M99 9h9v9H99V9M117 9h9v9H117V9M126 9h9v9H126V9M135 9h9v9H135V9M153 9h9v9H153V9M162 9h9v9H162V9M189 9h9v9H189V9M207 9h9v9H207V9M225 9h9v9H225V9M234 9h9v9H234V9M243 9h9v9H243V9M270 9h9v9H270V9M324 9h9v9H324V9M0 18h9v9H0V18M18 18h9v9H18V18M27 18h9v9H27V18M36 18h9v9H36V18M54 18h9v9H54V18M99 18h9v9H99V18M108 18h9v9H108V18M117 18h9v9H117V18M135 18h9v9H135V18M144 18h9v9H144V18M171 18h9v9H171V18M198 18h9v9H198V18M216 18h9v9H216V18M234 18h9v9H234V18M270 18h9v9H270V18M288 18h9v9H288V18M297 18h9v9H297V18M306 18h9v9H306V18M324 18h9v9H324V18M0 27h9v9H0V27M18 27h9v9H18V27M27 27h9v9H27V27M36 27h9v9H36V27M54 27h9v9H54V27M81 27h9v9H81V27M99 27h9v9H99V27M135 27h9v9H135V27M162 27h9v9H162V27M207 27h9v9H207V27M252 27h9v9H252V27M270 27h9v9H270V27M288 27h9v9H288V27M297 27h9v9H297V27M306 27h9v9H306V27M324 27h9v9H324V27M0 36h9v9H0V36M18 36h9v9H18V36M27 36h9v9H27V36M36 36h9v9H36V36M54 36h9v9H54V36M72 36h9v9H72V36M81 36h9v9H81V36M99 36h9v9H99V36M126 36h9v9H126V36M135 36h9v9H135V36M162 36h9v9H162V36M171 36h9v9H171V36M198 36h9v9H198V36M207 36h9v9H207V36M216 36h9v9H216V36M234 36h9v9H234V36M243 36h9v9H243V36M270 36h9v9H270V36M288 36h9v9H288V36M297 36h9v9H297V36M306 36h9v9H306V36M324 36h9v9H324V36M0 45h9v9H0V45M54 45h9v9H54V45M81 45h9v9H81V45M90 45h9v9H90V45M99 45h9v9H99V45M126 45h9v9H126V45M153 45h9v9H153V45M171 45h9v9H171V45M207 45h9v9H207V45M225 45h9v9H225V45M243 45h9v9H243V45M270 45h9v9H270V45M324 45h9v9H324V45M0 54h9v9H0V54M9 54h9v9H9V54M18 54h9v9H18V54M27 54h9v9H27V54M36 54h9v9H36V54M45 54h9v9H45V54M54 54h9v9H54V54M72 54h9v9H72V54M90 54h9v9H90V54M108 54h9v9H108V54M126 54h9v9H126V54M144 54h9v9H144V54M162 54h9v9H162V54M180 54h9v9H180V54M198 54h9v9H198V54M216 54h9v9H216V54M234 54h9v9H234V54M252 54h9v9H252V54M270 54h9v9H270V54M279 54h9v9H279V54M288 54h9v9H288V54M297 54h9v9H297V54M306 54h9v9H306V54M315 54h9v9H315V54M324 54h9v9H324V54M90 63h9v9H90V63M126 63h9v9H126V63M153 63h9v9H153V63M162 63h9v9H162V63M171 63h9v9H171V63M189 63h9v9H189V63M225 63h9v9H225V63M252 63h9v9H252V63M0 72h9v9H0V72M18 72h9v9H18V72M36 72h9v9H36V72M54 72h9v9H54V72M117 72h9v9H117V72M135 72h9v9H135V72M144 72h9v9H144V72M162 72h9v9H162V72M207 72h9v9H207V72M216 72h9v9H216V72M225 72h9v9H225V72M243 72h9v9H243V72M252 72h9v9H252V72M288 72h9v9H288V72M315 72h9v9H315V72M18 81h9v9H18V81M36 81h9v9H36V81M45 81h9v9H45V81M72 81h9v9H72V81M81 81h9v9H81V81M90 81h9v9H90V81M126 81h9v9H126V81M135 81h9v9H135V81M144 81h9v9H144V81M162 81h9v9H162V81M171 81h9v9H171V81M189 81h9v9H189V81M225 81h9v9H225V81M261 81h9v9H261V81M270 81h9v9H270V81M297 81h9v9H297V81M324 81h9v9H324V81M18 90h9v9H18V90M27 90h9v9H27V90M36 90h9v9H36V90M54 90h9v9H54V90M81 90h9v9H81V90M99 90h9v9H99V90M108 90h9v9H108V90M126 90h9v9H126V90M135 90h9v9H135V90M144 90h9v9H144V90M189 90h9v9H189V90M198 90h9v9H198V90M216 90h9v9H216V90M234 90h9v9H234V90M252 90h9v9H252V90M261 90h9v9H261V90M270 90h9v9H270V90M288 90h9v9H288V90M324 90h9v9H324V90M18 99h9v9H18V99M45 99h9v9H45V99M63 99h9v9H63V99M72 99h9v9H72V99M90 99h9v9H90V99M99 99h9v9H99V99M108 99h9v9H108V99M126 99h9v9H126V99M144 99h9v9H144V99M153 99h9v9H153V99M162 99h9v9H162V99M171 99h9v9H171V99M189 99h9v9H189V99M225 99h9v9H225V99M243 99h9v9H243V99M261 99h9v9H261V99M297 99h9v9H297V99M315 99h9v9H315V99M324 99h9v9H324V99M9 108h9v9H9V108M18 108h9v9H18V108M27 108h9v9H27V108M45 108h9v9H45V108M54 108h9v9H54V108M81 108h9v9H81V108M90 108h9v9H90V108M99 108h9v9H99V108M117 108h9v9H117V108M135 108h9v9H135V108M144 108h9v9H144V108M153 108h9v9H153V108M180 108h9v9H180V108M189 108h9v9H189V108M207 108h9v9H207V108M225 108h9v9H225V108M252 108h9v9H252V108M261 108h9v9H261V108M270 108h9v9H270V108M279 108h9v9H279V108M324 108h9v9H324V108M0 117h9v9H0V117M9 117h9v9H9V117M18 117h9v9H18V117M27 117h9v9H27V117M45 117h9v9H45V117M90 117h9v9H90V117M99 117h9v9H99V117M108 117h9v9H108V117M126 117h9v9H126V117M144 117h9v9H144V117M189 117h9v9H189V117M225 117h9v9H225V117M234 117h9v9H234V117M252 117h9v9H252V117M261 117h9v9H261V117M270 117h9v9H270V117M297 117h9v9H297V117M315 117h9v9H315V117M324 117h9v9H324V117M18 126h9v9H18V126M27 126h9v9H27V126M54 126h9v9H54V126M72 126h9v9H72V126M81 126h9v9H81V126M99 126h9v9H99V126M108 126h9v9H108V126M117 126h9v9H117V126M126 126h9v9H126V126M144 126h9v9H144V126M153 126h9v9H153V126M180 126h9v9H180V126M189 126h9v9H189V126M225 126h9v9H225V126M270 126h9v9H270V126M324 126h9v9H324V126M36 135h9v9H36V135M72 135h9v9H72V135M99 135h9v9H99V135M126 135h9v9H126V135M171 135h9v9H171V135M180 135h9v9H180V135M189 135h9v9H189V135M207 135h9v9H207V135M216 135h9v9H216V135M225 135h9v9H225V135M234 135h9v9H234V135M243 135h9v9H243V135M279 135h9v9H279V135M297 135h9v9H297V135M0 144h9v9H0V144M27 144h9v9H27V144M36 144h9v9H36V144M54 144h9v9H54V144M63 144h9v9H63V144M108 144h9v9H108V144M117 144h9v9H117V144M171 144h9v9H171V144M180 144h9v9H180V144M189 144h9v9H189V144M198 144h9v9H198V144M225 144h9v9H225V144M261 144h9v9H261V144M270 144h9v9H270V144M279 144h9v9H279V144M297 144h9v9H297V144M18 153h9v9H18V153M27 153h9v9H27V153M45 153h9v9H45V153M63 153h9v9H63V153M90 153h9v9H90V153M99 153h9v9H99V153M108 153h9v9H108V153M135 153h9v9H135V153M153 153h9v9H153V153M171 153h9v9H171V153M180 153h9v9H180V153M261 153h9v9H261V153M270 153h9v9H270V153M306 153h9v9H306V153M324 153h9v9H324V153M9 162h9v9H9V162M18 162h9v9H18V162M54 162h9v9H54V162M63 162h9v9H63V162M90 162h9v9H90V162M99 162h9v9H99V162M108 162h9v9H108V162M126 162h9v9H126V162M162 162h9v9H162V162M171 162h9v9H171V162M180 162h9v9H180V162M198 162h9v9H198V162M216 162h9v9H216V162M225 162h9v9H225V162M234 162h9v9H234V162M252 162h9v9H252V162M306 162h9v9H306V162M324 162h9v9H324V162M9 171h9v9H9V171M18 171h9v9H18V171M27 171h9v9H27V171M36 171h9v9H36V171M63 171h9v9H63V171M81 171h9v9H81V171M117 171h9v9H117V171M126 171h9v9H126V171M135 171h9v9H135V171M153 171h9v9H153V171M162 171h9v9H162V171M180 171h9v9H180V171M189 171h9v9H189V171M198 171h9v9H198V171M225 171h9v9H225V171M234 171h9v9H234V171M243 171h9v9H243V171M288 171h9v9H288V171M297 171h9v9H297V171M324 171h9v9H324V171M27 180h9v9H27V180M36 180h9v9H36V180M54 180h9v9H54V180M63 180h9v9H63V180M72 180h9v9H72V180M99 180h9v9H99V180M117 180h9v9H117V180M126 180h9v9H126V180M144 180h9v9H144V180M153 180h9v9H153V180M171 180h9v9H171V180M180 180h9v9H180V180M189 180h9v9H189V180M216 180h9v9H216V180M225 180h9v9H225V180M234 180h9v9H234V180M252 180h9v9H252V180M261 180h9v9H261V180M270 180h9v9H270V180M279 180h9v9H279V180M0 189h9v9H0V189M9 189h9v9H9V189M27 189h9v9H27V189M45 189h9v9H45V189M63 189h9v9H63V189M81 189h9v9H81V189M99 189h9v9H99V189M108 189h9v9H108V189M126 189h9v9H126V189M153 189h9v9H153V189M189 189h9v9H189V189M198 189h9v9H198V189M216 189h9v9H216V189M225 189h9v9H225V189M252 189h9v9H252V189M261 189h9v9H261V189M270 189h9v9H270V189M297 189h9v9H297V189M306 189h9v9H306V189M324 189h9v9H324V189M0 198h9v9H0V198M9 198h9v9H9V198M18 198h9v9H18V198M27 198h9v9H27V198M45 198h9v9H45V198M54 198h9v9H54V198M63 198h9v9H63V198M72 198h9v9H72V198M99 198h9v9H99V198M144 198h9v9H144V198M162 198h9v9H162V198M180 198h9v9H180V198M189 198h9v9H189V198M198 198h9v9H198V198M252 198h9v9H252V198M270 198h9v9H270V198M279 198h9v9H279V198M288 198h9v9H288V198M315 198h9v9H315V198M324 198h9v9H324V198M0 207h9v9H0V207M27 207h9v9H27V207M45 207h9v9H45V207M90 207h9v9H90V207M135 207h9v9H135V207M153 207h9v9H153V207M162 207h9v9H162V207M189 207h9v9H189V207M207 207h9v9H207V207M216 207h9v9H216V207M225 207h9v9H225V207M234 207h9v9H234V207M243 207h9v9H243V207M270 207h9v9H270V207M279 207h9v9H279V207M297 207h9v9H297V207M315 207h9v9H315V207M324 207h9v9H324V207M18 216h9v9H18V216M45 216h9v9H45V216M54 216h9v9H54V216M63 216h9v9H63V216M81 216h9v9H81V216M90 216h9v9H90V216M108 216h9v9H108V216M117 216h9v9H117V216M144 216h9v9H144V216M162 216h9v9H162V216M180 216h9v9H180V216M189 216h9v9H189V216M198 216h9v9H198V216M207 216h9v9H207V216M225 216h9v9H225V216M252 216h9v9H252V216M261 216h9v9H261V216M270 216h9v9H270V216M315 216h9v9H315V216M324 216h9v9H324V216M9 225h9v9H9V225M45 225h9v9H45V225M63 225h9v9H63V225M72 225h9v9H72V225M90 225h9v9H90V225M99 225h9v9H99V225M117 225h9v9H117V225M126 225h9v9H126V225M135 225h9v9H135V225M144 225h9v9H144V225M162 225h9v9H162V225M171 225h9v9H171V225M189 225h9v9H189V225M216 225h9v9H216V225M225 225h9v9H225V225M270 225h9v9H270V225M297 225h9v9H297V225M324 225h9v9H324V225M0 234h9v9H0V234M27 234h9v9H27V234M36 234h9v9H36V234M54 234h9v9H54V234M81 234h9v9H81V234M90 234h9v9H90V234M117 234h9v9H117V234M126 234h9v9H126V234M135 234h9v9H135V234M144 234h9v9H144V234M162 234h9v9H162V234M189 234h9v9H189V234M234 234h9v9H234V234M252 234h9v9H252V234M270 234h9v9H270V234M279 234h9v9H279V234M306 234h9v9H306V234M315 234h9v9H315V234M324 234h9v9H324V234M9 243h9v9H9V243M27 243h9v9H27V243M36 243h9v9H36V243M63 243h9v9H63V243M90 243h9v9H90V243M99 243h9v9H99V243M117 243h9v9H117V243M144 243h9v9H144V243M153 243h9v9H153V243M162 243h9v9H162V243M171 243h9v9H171V243M180 243h9v9H180V243M189 243h9v9H189V243M207 243h9v9H207V243M216 243h9v9H216V243M225 243h9v9H225V243M270 243h9v9H270V243M288 243h9v9H288V243M0 252h9v9H0V252M18 252h9v9H18V252M36 252h9v9H36V252M45 252h9v9H45V252M54 252h9v9H54V252M72 252h9v9H72V252M99 252h9v9H99V252M126 252h9v9H126V252M135 252h9v9H135V252M144 252h9v9H144V252M153 252h9v9H153V252M171 252h9v9H171V252M180 252h9v9H180V252M189 252h9v9H189V252M216 252h9v9H216V252M225 252h9v9H225V252M243 252h9v9H243V252M252 252h9v9H252V252M261 252h9v9H261V252M270 252h9v9H270V252M279 252h9v9H279V252M288 252h9v9H288V252M72 261h9v9H72V261M99 261h9v9H99V261M126 261h9v9H126V261M189 261h9v9H189V261M198 261h9v9H198V261M216 261h9v9H216V261M252 261h9v9H252V261M288 261h9v9H288V261M297 261h9v9H297V261M324 261h9v9H324V261M0 270h9v9H0V270M9 270h9v9H9V270M18 270h9v9H18V270M27 270h9v9H27V270M36 270h9v9H36V270M45 270h9v9H45V270M54 270h9v9H54V270M81 270h9v9H81V270M108 270h9v9H108V270M117 270h9v9H117V270M126 270h9v9H126V270M144 270h9v9H144V270M153 270h9v9H153V270M198 270h9v9H198V270M225 270h9v9H225V270M243 270h9v9H243V270M252 270h9v9H252V270M270 270h9v9H270V270M288 270h9v9H288V270M306 270h9v9H306V270M315 270h9v9H315V270M324 270h9v9H324V270M0 279h9v9H0V279M54 279h9v9H54V279M99 279h9v9H99V279M117 279h9v9H117V279M126 279h9v9H126V279M171 279h9v9H171V279M189 279h9v9H189V279M207 279h9v9H207V279M225 279h9v9H225V279M252 279h9v9H252V279M288 279h9v9H288V279M0 288h9v9H0V288M18 288h9v9H18V288M27 288h9v9H27V288M36 288h9v9H36V288M54 288h9v9H54V288M72 288h9v9H72V288M90 288h9v9H90V288M108 288h9v9H108V288M135 288h9v9H135V288M171 288h9v9H171V288M189 288h9v9H189V288M216 288h9v9H216V288M225 288h9v9H225V288M252 288h9v9H252V288M261 288h9v9H261V288M270 288h9v9H270V288M279 288h9v9H279V288M288 288h9v9H288V288M297 288h9v9H297V288M306 288h9v9H306V288M0 297h9v9H0V297M18 297h9v9H18V297M27 297h9v9H27V297M36 297h9v9H36V297M54 297h9v9H54V297M81 297h9v9H81V297M108 297h9v9H108V297M117 297h9v9H117V297M126 297h9v9H126V297M135 297h9v9H135V297M180 297h9v9H180V297M198 297h9v9H198V297M216 297h9v9H216V297M279 297h9v9H279V297M288 297h9v9H288V297M297 297h9v9H297V297M315 297h9v9H315V297M0 306h9v9H0V306M18 306h9v9H18V306M27 306h9v9H27V306M36 306h9v9H36V306M54 306h9v9H54V306M72 306h9v9H72V306M99 306h9v9H99V306M108 306h9v9H108V306M198 306h9v9H198V306M216 306h9v9H216V306M225 306h9v9H225V306M279 306h9v9H279V306M288 306h9v9H288V306M297 306h9v9H297V306M315 306h9v9H315V306M324 306h9v9H324V306M0 315h9v9H0V315M54 315h9v9H54V315M81 315h9v9H81V315M117 315h9v9H117V315M135 315h9v9H135V315M153 315h9v9H153V315M171 315h9v9H171V315M180 315h9v9H180V315M189 315h9v9H189V315M198 315h9v9H198V315M207 315h9v9H207V315M216 315h9v9H216V315M225 315h9v9H225V315M252 315h9v9H252V315M279 315h9v9H279V315M315 315h9v9H315V315M0 324h9v9H0V324M9 324h9v9H9V324M18 324h9v9H18V324M27 324h9v9H27V324M36 324h9v9H36V324M45 324h9v9H45V324M54 324h9v9H54V324M72 324h9v9H72V324M81 324h9v9H81V324M90 324h9v9H90V324M117 324h9v9H117V324M126 324h9v9H126V324M153 324h9v9H153V324M162 324h9v9H162V324M171 324h9v9H171V324M180 324h9v9H180V324M189 324h9v9H189V324M216 324h9v9H216V324M225 324h9v9H225V324M252 324h9v9H252V324M270 324h9v9H270V324M288 324h9v9H288V324M315 324h9v9H315V324M324 324h9v9H324V324"/></svg>