<?xml version="1.0" standalone="yes"?><svg xmlns="http://www.w3.org/2000/svg" version="1.1" width="333" height="333" viewBox="0 0 333 333" shape-rendering="crispEdges"><rect x="0" y="0" width="333" height="333" fill="#fff"/><path fill="#000" d="M0 0h9v9H0V0M9 0h9v9H9V0M18 0h9v9H18V0M27 0h9v9H27V0M36 0h9v9H36V0M45 0h9v9H45V0M54 0h9v9H54V0M72 0h9v9H72V0M81 0h9v9H81V0M99 0h9v9H99V0M135 0h9v9H135V0M153 0h9v9H153V0M171 0h9v9H171V0M180 0h9v9H180V0M198 0h9v9H198V0M207 0h9v9H207V0M225 0h9v9H225V0M234 0h9v9H234V0M243 0h9v9H243V0M252 0h9v9H252V0M270 0h9v9H270V0M279 0h9v9H279V0M288 0h9v9H288V0M297 0h9v9H297V0M306 0h9v9H306V0M315 0h9v9H315V0M324 0h9v9H324V0M0 9h9v9H0V9M54 9h9v9H54V9M81 9h9v9H81V9M126 9h9v9H126V9M162 9h9v9H162V9M171 9h9v9H171V9M225 9h9v9H225V9M270 9h9v9H270V9M324 9h9v9H324V9M0 18h9v9H0V18M18 18h9v9H18V18M27 18h9v9H27V18M36 18h9v9H36V18M54 18h9v9H54V18M99 18h9v9H99V18M108 18h9v9H108V18M135 18h9v9H135V18M144 18h9v9H144V18M153 18h9v9H153V18M162 18h9v9H162V18M189 18h9v9H189V18M198 18h9v9H198V18M207 18h9v9H207V18M216 18h9v9H216V18M243 18h9v9H243V18M270 18h9v9H270V18M288 18h9v9H288V18M297 18h9v9H297V18M306 18h9v9H306V18M324 18h9v9H324V18M0 27h9v9H0V27M18 27h9v9H18V27M27 27h9v9H27V27M36 27h9v9H36V27M54 27h9v9H54V27M72 27h9v9H72V27M81 27h9v9H81V27M90 27h9v9H90V27M108 27h9v9H108V27M117 27h9v9H117V27M135 27h9v9H135V27M162 27h9v9H162V27M198 27h9v9H198V27M225 27h9v9H225V27M243 27h9v9H243V27M270 27h9v9H270V27M288 27h9v9H288V27M297 27h9v9H297V27M306 27h9v9H306V27M324 27h9v9H324V27M0 36h9v9H0V36M18 36h9v9H18V36M27 36h9v9H27V36M36 36h9v9H36V36M54 36h9v9H54V36M72 36h9v9H72V36M90 36h9v9H90V36M99 36h9v9H99V36M153 36h9v9H153V36M162 36h9v9H162V36M189 36h9v9H189V36M207 36h9v9H207V36M216 36h9v9H216V36M225 36h9v9H225V36M234 36h9v9H234V36M243 36h9v9H243V36M252 36h9v9H252V36M270 36h9v9H270V36M288 36h9v9H288V36M297 36h9v9H297V36M306 36h9v9H306V36M324 36h9v9H324V36M0 45h9v9H0V45M54 45h9v9H54V45M72 45h9v9H72V45M117 45h9v9H117V45M153 45h9v9H153V45M171 45h9v9H171V45M198 45h9v9H198V45M216 45h9v9H216V45M225 45h9v9H225V45M270 45h9v9H270V45M324 45h9v9H324V45M0 54h9v9H0V54M9 54h9v9H9V54M18 54h9v9H18V54M27 54h9v9H27V54M36 54h9v9H36V54M45 54h9v9H45V54M54 54h9v9H54V54M72 54h9v9H72V54M90 54h9v9H90V54M108 54h9v9H108V54M126 54h9v9H126V54M144 54h9v9H144V54M162 54h9v9H162V54M180 54h9v9H180V54M198 54h9v9H198V54M216 54h9v9H216V54M234 54h9v9H234V54M252 54h9v9H252V54M270 54h9v9H270V54M279 54h9v9H279V54M288 54h9v9H288V54M297 54h9v9H297V54M306 54h9v9H306V54M315 54h9v9H315V54M324 54h9v9H324V54M72 63h9v9H72V63M81 63h9v9H81V63M117 63h9v9H117V63M135 63h9v9H135V63M189 63h9v9H189V63M234 63h9v9H234V63M0 72h9v9H0V72M36 72h9v9H36V72M54 72h9v9H54V72M63 72h9v9H63V72M72 72h9v9H72V72M81 72h9v9H81V72M99 72h9v9H99V72M108 72h9v9H108V72M117 72h9v9H117V72M126 72h9v9H126V72M144 72h9v9H144V72M171 72h9v9H171V72M180 72h9v9H180V72M207 72h9v9H207V72M243 72h9v9H243V72M261 72h9v9H261V72M270 72h9v9H270V72M279 72h9v9H279V72M288 72h9v9H288V72M297 72h9v9H297V72M324 72h9v9H324V72M0 81h9v9H0V81M27 81h9v9H27V81M36 81h9v9H36V81M81 81h9v9H81V81M90 81h9v9H90V81M117 81h9v9H117V81M153 81h9v9H153V81M162 81h9v9H162V81M171 81h9v9H171V81M207 81h9v9H207V81M225 81h9v9H225V81M243 81h9v9H243V81M252 81h9v9H252V81M261 81h9v9H261V81M279 81h9v9H279V81M288 81h9v9H288V81M297 81h9v9H297V81M306 81h9v9H306V81M315 81h9v9H315V81M0 90h9v9H0V90M9 90h9v9H9V90M18 90h9v9H18V90M27 90h9v9H27V90M45 90h9v9H45V90M54 90h9v9H54V90M63 90h9v9H63V90M108 90h9v9H108V90M117 90h9v9H117V90M126 90h9v9H126V90M135 90h9v9H135V90M153 90h9v9H153V90M162 90h9v9H162V90M171 90h9v9H171V90M198 90h9v9H198V90M207 90h9v9H207V90M243 90h9v9H243V90M252 90h9v9H252V90M297 90h9v9H297V90M315 90h9v9H315V90M0 99h9v9H0V99M9 99h9v9H9V99M36 99h9v9H36V99M63 99h9v9H63V99M72 99h9v9H72V99M81 99h9v9H81V99M99 99h9v9H99V99M108 99h9v9H108V99M117 99h9v9H117V99M126 99h9v9H126V99M135 99h9v9H135V99M144 99h9v9H144V99M153 99h9v9H153V99M171 99h9v9H171V99M180 99h9v9H180V99M189 99h9v9H189V99M198 99h9v9H198V99M207 99h9v9H207V99M261 99h9v9H261V99M306 99h9v9H306V99M315 99h9v9H315V99M324 99h9v9H324V99M9 108h9v9H9V108M27 108h9v9H27V108M54 108h9v9H54V108M63 108h9v9H63V108M72 108h9v9H72V108M81 108h9v9H81V108M99 108h9v9H99V108M108 108h9v9H108V108M117 108h9v9H117V108M153 108h9v9H153V108M162 108h9v9H162V108M180 108h9v9H180V108M189 108h9v9H189V108M198 108h9v9H198V108M243 108h9v9H243V108M261 108h9v9H261V108M270 108h9v9H270V108M297 108h9v9H297V108M306 108h9v9H306V108M324 108h9v9H324V108M27 117h9v9H27V117M36 117h9v9H36V117M81 117h9v9H81V117M108 117h9v9H108V117M117 117h9v9H117V117M126 117h9v9H126V117M135 117h9v9H135V117M189 117h9v9H189V117M198 117h9v9H198V117M207 117h9v9H207V117M216 117h9v9H216V117M225 117h9v9H225V117M243 117h9v9H243V117M252 117h9v9H252V117M288 117h9v9H288V117M297 117h9v9H297V117M0 126h9v9H0V126M9 126h9v9H9V126M45 126h9v9H45V126M54 126h9v9H54V126M63 126h9v9H63V126M81 126h9v9H81V126M90 126h9v9H90V126M99 126h9v9H99V126M108 126h9v9H108V126M117 126h9v9H117V126M135 126h9v9H135V126M144 126h9v9H144V126M153 126h9v9H153V126M180 126h9v9H180V126M207 126h9v9H207V126M216 126h9v9H216V126M225 126h9v9H225V126M243 126h9v9H243V126M261 126h9v9H261V126M288 126h9v9H288V126M306 126h9v9H306V126M9 135h9v9H9V135M18 135h9v9H18V135M27 135h9v9H27V135M36 135h9v9H36V135M63 135h9v9H63V135M72 135h9v9H72V135M81 135h9v9H81V135M90 135h9v9H90V135M108 135h9v9H108V135M126 135h9v9H126V135M135 135h9v9H135V135M153 135h9v9H153V135M162 135h9v9H162V135M180 135h9v9H180V135M198 135h9v9H198V135M207 135h9v9H207V135M216 135h9v9H216V135M243 135h9v9H243V135M252 135h9v9H252V135M261 135h9v9H261V135M297 135h9v9H297V135M306 135h9v9H306V135M324 135h9v9H324V135M9 144h9v9H9V144M18 144h9v9H18V144M36 144h9v9H36V144M45 144h9v9H45V144M54 144h9v9H54V144M72 144h9v9H72V144M126 144h9v9H126V144M135 144h9v9H135V144M162 144h9v9H162V144M198 144h9v9H198V144M216 144h9v9H216V144M234 144h9v9H234V144M270 144h9v9H270V144M279 144h9v9H279V144M297 144h9v9H297V144M306 144h9v9H306V144M315 144h9v9H315V144M0 153h9v9H0V153M18 153h9v9H18V153M81 153h9v9H81V153M99 153h9v9H99V153M117 153h9v9H117V153M126 153h9v9H126V153M144 153h9v9H144V153M153 153h9v9H153V153M171 153h9v9H171V153M180 153h9v9H180V153M207 153h9v9H207V153M216 153h9v9H216V153M243 153h9v9H243V153M252 153h9v9H252V153M279 153h9v9H279V153M288 153h9v9H288V153M297 153h9v9H297V153M315 153h9v9H315V153M0 162h9v9H0V162M18 162h9v9H18V162M45 162h9v9H45V162M54 162h9v9H54V162M81 162h9v9H81V162M90 162h9v9H90V162M117 162h9v9H117V162M126 162h9v9H126V162M144 162h9v9H144V162M180 162h9v9H180V162M189 162h9v9H189V162M207 162h9v9H207V162M225 162h9v9H225V162M243 162h9v9H243V162M261 162h9v9H261V162M270 162h9v9H270V162M288 162h9v9H288V162M297 162h9v9H297V162M306 162h9v9H306V162M315 162h9v9H315V162M9 171h9v9H9V171M36 171h9v9H36V171M45 171h9v9H45V171M81 171h9v9H81V171M153 171h9v9H153V171M189 171h9v9H189V171M234 171h9v9H234V171M243 171h9v9H243V171M288 171h9v9H288V171M306 171h9v9H306V171M324 171h9v9H324V171M36 180h9v9H36V180M45 180h9v9H45V180M54 180h9v9H54V180M63 180h9v9H63V180M99 180h9v9H99V180M108 180h9v9H108V180M126 180h9v9H126V180M135 180h9v9H135V180M153 180h9v9H153V180M162 180h9v9H162V180M171 180h9v9H171V180M180 180h9v9H180V180M189 180h9v9H189V180M216 180h9v9H216V180M234 180h9v9H234V180M261 180h9v9H261V180M270 180h9v9H270V180M306 180h9v9H306V180M0 189h9v9H0V189M9 189h9v9H9V189M27 189h9v9H27V189M36 189h9v9H36V189M63 189h9v9H63V189M72 189h9v9H72V189M99 189h9v9H99V189M108 189h9v9H108V189M135 189h9v9H135V189M153 189h9v9H153V189M162 189h9v9H162V189M207 189h9v9H207V189M234 189h9v9H234V189M243 189h9v9H243V189M252 189h9v9H252V189M288 189h9v9H288V189M306 189h9v9H306V189M0 198h9v9H0V198M45 198h9v9H45V198M54 198h9v9H54V198M63 198h9v9H63V198M81 198h9v9H81V198M90 198h9v9H90V198M99 198h9v9H99V198M108 198h9v9H108V198M126 198h9v9H126V198M135 198h9v9H135V198M144 198h9v9H144V198M162 198h9v9H162V198M180 198h9v9H180V198M189 198h9v9H189V198M198 198h9v9H198V198M207 198h9v9H207V198M216 198h9v9H216V198M225 198h9v9H225V198M243 198h9v9H243V198M252 198h9v9H252V198M270 198h9v9H270V198M279 198h9v9H279V198M297 198h9v9H297V198M0 207h9v9H0V207M9 207h9v9H9V207M18 207h9v9H18V207M27 207h9v9H27V207M81 207h9v9H81V207M90 207h9v9H90V207M99 207h9v9H99V207M108 207h9v9H108V207M117 207h9v9H117V207M144 207h9v9H144V207M180 207h9v9H180V207M189 207h9v9H189V207M207 207h9v9H207V207M216 207h9v9H216V207M243 207h9v9H243V207M252 207h9v9H252V207M261 207h9v9H261V207M297 207h9v9H297V207M306 207h9v9H306V207M324 207h9v9H324V207M54 216h9v9H54V216M72 216h9v9H72V216M81 216h9v9H81V216M90 216h9v9H90V216M126 216h9v9H126V216M144 216h9v9H144V216M171 216h9v9H171V216M180 216h9v9H180V216M207 216h9v9H207V216M216 216h9v9H216V216M234 216h9v9H234V216M270 216h9v9H270V216M306 216h9v9H306V216M324 216h9v9H324V216M0 225h9v9H0V225M9 225h9v9H9V225M18 225h9v9H18V225M36 225h9v9H36V225M63 225h9v9H63V225M81 225h9v9H81V225M108 225h9v9H108V225M126 225h9v9H126V225M162 225h9v9H162V225M171 225h9v9H171V225M198 225h9v9H198V225M207 225h9v9H207V225M216 225h9v9H216V225M225 225h9v9H225V225M234 225h9v9H234V225M243 225h9v9H243V225M252 225h9v9H252V225M279 225h9v9H279V225M288 225h9v9H288V225M315 225h9v9H315V225M45 234h9v9H45V234M54 234h9v9H54V234M63 234h9v9H63V234M72 234h9v9H72V234M81 234h9v9H81V234M90 234h9v9H90V234M99 234h9v9H99V234M108 234h9v9H108V234M117 234h9v9H117V234M126 234h9v9H126V234M135 234h9v9H135V234M153 234h9v9H153V234M171 234h9v9H171V234M198 234h9v9H198V234M207 234h9v9H207V234M243 234h9v9H243V234M261 234h9v9H261V234M306 234h9v9H306V234M18 243h9v9H18V243M27 243h9v9H27V243M81 243h9v9H81V243M90 243h9v9H90V243M108 243h9v9H108V243M117 243h9v9H117V243M135 243h9v9H135V243M144 243h9v9H144V243M153 243h9v9H153V243M171 243h9v9H171V243M180 243h9v9H180V243M189 243h9v9H189V243M198 243h9v9H198V243M216 243h9v9H216V243M270 243h9v9H270V243M279 243h9v9H279V243M306 243h9v9H306V243M315 243h9v9H315V243M0 252h9v9H0V252M9 252h9v9H9V252M18 252h9v9H18V252M36 252h9v9H36V252M54 252h9v9H54V252M63 252h9v9H63V252M72 252h9v9H72V252M81 252h9v9H81V252M108 252h9v9H108V252M126 252h9v9H126V252M153 252h9v9H153V252M162 252h9v9H162V252M180 252h9v9H180V252M189 252h9v9H189V252M216 252h9v9H216V252M252 252h9v9H252V252M261 252h9v9H261V252M270 252h9v9H270V252M279 252h9v9H279V252M288 252h9v9H288V252M306 252h9v9H306V252M315 252h9v9H315V252M324 252h9v9H324V252M72 261h9v9H72V261M81 261h9v9H81V261M99 261h9v9H99V261M108 261h9v9H108V261M117 261h9v9H117V261M135 261h9v9H135V261M162 261h9v9H162V261M189 261h9v9H189V261M207 261h9v9H207V261M225 261h9v9H225V261M234 261h9v9H234V261M243 261h9v9H243V261M252 261h9v9H252V261M288 261h9v9H288V261M0 270h9v9H0V270M9 270h9v9H9V270M18 270h9v9H18V270M27 270h9v9H27V270M36 270h9v9H36V270M45 270h9v9H45V270M54 270h9v9H54V270M72 270h9v9H72V270M90 270h9v9H90V270M99 270h9v9H99V270M108 270h9v9H108V270M117 270h9v9H117V270M126 270h9v9H126V270M135 270h9v9H135V270M153 270h9v9H153V270M207 270h9v9H207V270M216 270h9v9H216V270M252 270h9v9H252V270M270 270h9v9H270V270M288 270h9v9H288V270M297 270h9v9H297V270M306 270h9v9H306V270M0 279h9v9H0V279M54 279h9v9H54V279M99 279h9v9H99V279M135 279h9v9H135V279M144 279h9v9H144V279M153 279h9v9H153V279M162 279h9v9H162V279M198 279h9v9H198V279M207 279h9v9H207V279M252 279h9v9H252V279M288 279h9v9H288V279M306 279h9v9H306V279M315 279h9v9H315V279M0 288h9v9H0V288M18 288h9v9H18V288M27 288h9v9H27V288M36 288h9v9H36V288M54 288h9v9H54V288M72 288h9v9H72V288M81 288h9v9H81V288M108 288h9v9H108V288M117 288h9v9H117V288M135 288h9v9H135V288M162 288h9v9H162V288M171 288h9v9H171V288M198 288h9v9H198V288M216 288h9v9H216V288M234 288h9v9H234V288M252 288h9v9H252V288M261 288h9v9H261V288M270 288h9v9H270V288M279 288h9v9H279V288M288 288h9v9H288V288M297 288h9v9H297V288M324 288h9v9H324V288M0 297h9v9H0V297M18 297h9v9H18V297M27 297h9v9H27V297M36 297h9v9H36V297M54 297h9v9H54V297M90 297h9v9H90V297M99 297h9v9H99V297M117 297h9v9H117V297M126 297h9v9H126V297M144 297h9v9H144V297M171 297h9v9H171V297M180 297h9v9H180V297M189 297h9v9H189V297M234 297h9v9H234V297M243 297h9v9H243V297M261 297h9v9H261V297M270 297h9v9H270V297M279 297h9v9H279V297M324 297h9v9H324V297M0 306h9v9H0V306M18 306h9v9H18V306M27 306h9v9H27V306M36 306h9v9H36V306M54 306h9v9H54V306M81 306h9v9H81V306M90 306h9v9H90V306M144 306h9v9H144V306M180 306h9v9H180V306M189 306h9v9H189V306M207 306h9v9H207V306M225 306h9v9H225V306M234 306h9v9H234V306M243 306h9v9H243V306M261 306h9v9H261V306M270 306h9v9H270V306M279 306h9v9H279V306M0 315h9v9H0V315M54 315h9v9H54V315M108 315h9v9H108V315M153 315h9v9H153V315M189 315h9v9H189V315M198 315h9v9H198V315M243 315h9v9H243V315M261 315h9v9H261V315M306 315h9v9H306V315M315 315h9v9H315V315M0 324h9v9H0V324M9 324h9v9H9V324M18 324h9v9H18V324M27 324h9v9H27V324M36 324h9v9H36V324M45 324h9v9H45V324M54 324h9v9H54V324M72 324h9v9H72V324M90 324h9v9H90V324M117 324h9v9H117V324M135 324h9v9H135V324M144 324h9v9H144V324M153 324h9v9H153V324M171 324h9v9H171V324M180 324h9v9H180V324M189 324h9v9H189V324M216 324h9v9H216V324M243 324h9v9H243V324M270 324h9v9H270V324M279 324h9v9H279V324M288 324h9v9H288V324M297 324h9v9H297V324M306 324h9v9H306V324M315 324h9v9H315V324M324 324h9v9H324V324"/></svg>