<?xml version="1.0" standalone="yes"?><svg xmlns="http://www.w3.org/2000/svg" version="1.1" width="333" height="333" viewBox="0 0 333 333" shape-rendering="crispEdges"><rect x="0" y="0" width="333" height="333" fill="#fff"/><path fill="#000" d="M0 0h9v9H0V0M9 0h9v9H9V0M18 0h9v9H18V0M27 0h9v9H27V0M36 0h9v9H36V0M45 0h9v9H45V0M54 0h9v9H54V0M72 0h9v9H72V0M90 0h9v9H90V0M99 0h9v9H99V0M144 0h9v9H144V0M153 0h9v9H153V0M162 0h9v9H162V0M171 0h9v9H171V0M189 0h9v9H189V0M198 0h9v9H198V0M216 0h9v9H216V0M225 0h9v9H225V0M234 0h9v9H234V0M252 0h9v9H252V0M270 0h9v9H270V0M279 0h9v9H279V0M288 0h9v9H288V0M297 0h9v9H297V0M306 0h9v9H306V0M315 0h9v9H315V0M324 0h9v9H324V0M0 9h9v9H0V9M54 9h9v9H54V9M72 9h9v9H72V9M81 9h9v9H81V9M90 9h9v9H90V9M108 9h9v9H108V9M126 9h9v9H126V9M180 9h9v9H180V9M216 9h9v9H216V9M225 9h9v9H225V9M270 9h9v9H270V9M324 9h9v9H324V9M0 18h9v9H0V18M18 18h9v9H18V18M27 18h9v9H27V18M36 18h9v9H36V18M54 18h9v9H54V18M72 18h9v9H72V18M90 18h9v9H90V18M99 18h9v9H99V18M108 18h9v9H108V18M117 18h9v9H117V18M126 18h9v9H126V18M144 18h9v9H144V18M180 18h9v9H180V18M189 18h9v9H189V18M198 18h9v9H198V18M216 18h9v9H216V18M225 18h9v9H225V18M243 18h9v9H243V18M270 18h9v9H270V18M288 18h9v9H288V18M297 18h9v9H297V18M306 18h9v9H306V18M324 18h9v9H324V18M0 27h9v9H0V27M18 27h9v9H18V27M27 27h9v9H27V27M36 27h9v9H36V27M54 27h9v9H54V27M117 27h9v9H117V27M126 27h9v9H126V27M153 27h9v9H153V27M171 27h9v9H171V27M180 27h9v9H180V27M189 27h9v9H189V27M198 27h9v9H198V27M216 27h9v9H216V27M225 27h9v9H225V27M234 27h9v9H234V27M243 27h9v9H243V27M270 27h9v9H270V27M288 27h9v9H288V27M297 27h9v9H297V27M306 27h9v9H306V27M324 27h9v9H324V27M0 36h9v9H0V36M18 36h9v9H18V36M27 36h9v9H27V36M36 36h9v9H36V36M54 36h9v9H54V36M72 36h9v9H72V36M99 36h9v9H99V36M108 36h9v9H108V36M153 36h9v9H153V36M162 36h9v9H162V36M171 36h9v9H171V36M189 36h9v9H189V36M216 36h9v9H216V36M234 36h9v9H234V36M252 36h9v9H252V36M270 36h9v9H270V36M288 36h9v9H288V36M297 36h9v9H297V36M306 36h9v9H306V36M324 36h9v9H324V36M0 45h9v9H0V45M54 45h9v9H54V45M99 45h9v9H99V45M108 45h9v9H108V45M117 45h9v9H117V45M126 45h9v9H126V45M135 45h9v9H135V45M144 45h9v9H144V45M153 45h9v9H153V45M162 45h9v9H162V45M189 45h9v9H189V45M198 45h9v9H198V45M207 45h9v9H207V45M216 45h9v9H216V45M252 45h9v9H252V45M270 45h9v9H270V45M324 45h9v9H324V45M0 54h9v9H0V54M9 54h9v9H9V54M18 54h9v9H18V54M27 54h9v9H27V54M36 54h9v9H36V54M45 54h9v9H45V54M54 54h9v9H54V54M72 54h9v9H72V54M90 54h9v9H90V54M108 54h9v9H108V54M126 54h9v9H126V54M144 54h9v9H144V54M162 54h9v9H162V54M180 54h9v9H180V54M198 54h9v9H198V54M216 54h9v9H216V54M234 54h9v9H234V54M252 54h9v9H252V54M270 54h9v9H270V54M279 54h9v9H279V54M288 54h9v9H288V54M297 54h9v9H297V54M306 54h9v9H306V54M315 54h9v9H315V54M324 54h9v9H324V54M81 63h9v9H81V63M90 63h9v9H90V63M99 63h9v9H99V63M171 63h9v9H171V63M180 63h9v9H180V63M207 63h9v9H207V63M216 63h9v9H216V63M225 63h9v9H225V63M234 63h9v9H234V63M243 63h9v9H243V63M252 63h9v9H252V63M0 72h9v9H0V72M27 72h9v9H27V72M36 72h9v9H36V72M45 72h9v9H45V72M54 72h9v9H54V72M63 72h9v9H63V72M72 72h9v9H72V72M81 72h9v9H81V72M126 72h9v9H126V72M135 72h9v9H135V72M144 72h9v9H144V72M162 72h9v9H162V72M171 72h9v9H171V72M180 72h9v9H180V72M189 72h9v9H189V72M207 72h9v9H207V72M216 72h9v9H216V72M234 72h9v9H234V72M252 72h9v9H252V72M261 72h9v9H261V72M288 72h9v9H288V72M306 72h9v9H306V72M315 72h9v9H315V72M324 72h9v9H324V72M0 81h9v9H0V81M9 81h9v9H9V81M27 81h9v9H27V81M63 81h9v9H63V81M81 81h9v9H81V81M99 81h9v9H99V81M108 81h9v9H108V81M153 81h9v9H153V81M180 81h9v9H180V81M198 81h9v9H198V81M207 81h9v9H207V81M216 81h9v9H216V81M234 81h9v9H234V81M243 81h9v9H243V81M252 81h9v9H252V81M279 81h9v9H279V81M288 81h9v9H288V81M306 81h9v9H306V81M315 81h9v9H315V81M18 90h9v9H18V90M45 90h9v9H45V90M54 90h9v9H54V90M90 90h9v9H90V90M108 90h9v9H108V90M117 90h9v9H117V90M153 90h9v9H153V90M207 90h9v9H207V90M216 90h9v9H216V90M234 90h9v9H234V90M243 90h9v9H243V90M270 90h9v9H270V90M288 90h9v9H288V90M297 90h9v9H297V90M306 90h9v9H306V90M315 90h9v9H315V90M324 90h9v9H324V90M18 99h9v9H18V99M27 99h9v9H27V99M72 99h9v9H72V99M81 99h9v9H81V99M99 99h9v9H99V99M117 99h9v9H117V99M135 99h9v9H135V99M153 99h9v9H153V99M198 99h9v9H198V99M216 99h9v9H216V99M252 99h9v9H252V99M261 99h9v9H261V99M270 99h9v9H270V99M279 99h9v9H279V99M306 99h9v9H306V99M315 99h9v9H315V99M0 108h9v9H0V108M18 108h9v9H18V108M27 108h9v9H27V108M54 108h9v9H54V108M63 108h9v9H63V108M81 108h9v9H81V108M144 108h9v9H144V108M171 108h9v9H171V108M180 108h9v9H180V108M243 108h9v9H243V108M252 108h9v9H252V108M270 108h9v9H270V108M297 108h9v9H297V108M315 108h9v9H315V108M324 108h9v9H324V108M27 117h9v9H27V117M45 117h9v9H45V117M72 117h9v9H72V117M81 117h9v9H81V117M90 117h9v9H90V117M108 117h9v9H108V117M126 117h9v9H126V117M135 117h9v9H135V117M144 117h9v9H144V117M153 117h9v9H153V117M162 117h9v9H162V117M180 117h9v9H180V117M207 117h9v9H207V117M216 117h9v9H216V117M225 117h9v9H225V117M243 117h9v9H243V117M252 117h9v9H252V117M288 117h9v9H288V117M297 117h9v9H297V117M9 126h9v9H9V126M27 126h9v9H27V126M54 126h9v9H54V126M63 126h9v9H63V126M135 126h9v9H135V126M144 126h9v9H144V126M153 126h9v9H153V126M171 126h9v9H171V126M234 126h9v9H234V126M243 126h9v9H243V126M270 126h9v9H270V126M279 126h9v9H279V126M288 126h9v9H288V126M297 126h9v9H297V126M324 126h9v9H324V126M0 135h9v9H0V135M9 135h9v9H9V135M27 135h9v9H27V135M45 135h9v9H45V135M63 135h9v9H63V135M81 135h9v9H81V135M90 135h9v9H90V135M99 135h9v9H99V135M117 135h9v9H117V135M135 135h9v9H135V135M144 135h9v9H144V135M153 135h9v9H153V135M162 135h9v9H162V135M198 135h9v9H198V135M252 135h9v9H252V135M261 135h9v9H261V135M270 135h9v9H270V135M288 135h9v9H288V135M306 135h9v9H306V135M315 135h9v9H315V135M324 135h9v9H324V135M0 144h9v9H0V144M18 144h9v9H18V144M45 144h9v9H45V144M54 144h9v9H54V144M63 144h9v9H63V144M81 144h9v9H81V144M90 144h9v9H90V144M99 144h9v9H99V144M108 144h9v9H108V144M117 144h9v9H117V144M135 144h9v9H135V144M144 144h9v9H144V144M153 144h9v9H153V144M171 144h9v9H171V144M180 144h9v9H180V144M207 144h9v9H207V144M225 144h9v9H225V144M243 144h9v9H243V144M252 144h9v9H252V144M270 144h9v9H270V144M279 144h9v9H279V144M306 144h9v9H306V144M315 144h9v9H315V144M0 153h9v9H0V153M9 153h9v9H9V153M18 153h9v9H18V153M45 153h9v9H45V153M99 153h9v9H99V153M117 153h9v9H117V153M144 153h9v9H144V153M153 153h9v9H153V153M162 153h9v9H162V153M180 153h9v9H180V153M189 153h9v9H189V153M198 153h9v9H198V153M216 153h9v9H216V153M225 153h9v9H225V153M243 153h9v9H243V153M252 153h9v9H252V153M261 153h9v9H261V153M279 153h9v9H279V153M297 153h9v9H297V153M0 162h9v9H0V162M9 162h9v9H9V162M18 162h9v9H18V162M27 162h9v9H27V162M36 162h9v9H36V162M54 162h9v9H54V162M81 162h9v9H81V162M90 162h9v9H90V162M108 162h9v9H108V162M135 162h9v9H135V162M153 162h9v9H153V162M162 162h9v9H162V162M180 162h9v9H180V162M189 162h9v9H189V162M198 162h9v9H198V162M207 162h9v9H207V162M216 162h9v9H216V162M234 162h9v9H234V162M243 162h9v9H243V162M252 162h9v9H252V162M261 162h9v9H261V162M279 162h9v9H279V162M297 162h9v9H297V162M306 162h9v9H306V162M315 162h9v9H315V162M324 162h9v9H324V162M9 171h9v9H9V171M36 171h9v9H36V171M45 171h9v9H45V171M63 171h9v9H63V171M72 171h9v9H72V171M81 171h9v9H81V171M90 171h9v9H90V171M99 171h9v9H99V171M108 171h9v9H108V171M117 171h9v9H117V171M126 171h9v9H126V171M198 171h9v9H198V171M207 171h9v9H207V171M216 171h9v9H216V171M225 171h9v9H225V171M261 171h9v9H261V171M270 171h9v9H270V171M315 171h9v9H315V171M9 180h9v9H9V180M18 180h9v9H18V180M54 180h9v9H54V180M81 180h9v9H81V180M90 180h9v9H90V180M99 180h9v9H99V180M135 180h9v9H135V180M144 180h9v9H144V180M153 180h9v9H153V180M198 180h9v9H198V180M216 180h9v9H216V180M243 180h9v9H243V180M252 180h9v9H252V180M261 180h9v9H261V180M270 180h9v9H270V180M288 180h9v9H288V180M297 180h9v9H297V180M18 189h9v9H18V189M36 189h9v9H36V189M72 189h9v9H72V189M90 189h9v9H90V189M99 189h9v9H99V189M117 189h9v9H117V189M135 189h9v9H135V189M144 189h9v9H144V189M162 189h9v9H162V189M171 189h9v9H171V189M180 189h9v9H180V189M198 189h9v9H198V189M207 189h9v9H207V189M234 189h9v9H234V189M243 189h9v9H243V189M279 189h9v9H279V189M288 189h9v9H288V189M315 189h9v9H315V189M0 198h9v9H0V198M9 198h9v9H9V198M36 198h9v9H36V198M54 198h9v9H54V198M72 198h9v9H72V198M81 198h9v9H81V198M90 198h9v9H90V198M108 198h9v9H108V198M135 198h9v9H135V198M153 198h9v9H153V198M162 198h9v9H162V198M180 198h9v9H180V198M207 198h9v9H207V198M243 198h9v9H243V198M261 198h9v9H261V198M270 198h9v9H270V198M279 198h9v9H279V198M288 198h9v9H288V198M297 198h9v9H297V198M306 198h9v9H306V198M324 198h9v9H324V198M9 207h9v9H9V207M18 207h9v9H18V207M36 207h9v9H36V207M45 207h9v9H45V207M72 207h9v9H72V207M81 207h9v9H81V207M99 207h9v9H99V207M108 207h9v9H108V207M117 207h9v9H117V207M144 207h9v9H144V207M153 207h9v9H153V207M171 207h9v9H171V207M198 207h9v9H198V207M207 207h9v9H207V207M234 207h9v9H234V207M252 207h9v9H252V207M306 207h9v9H306V207M315 207h9v9H315V207M9 216h9v9H9V216M27 216h9v9H27V216M54 216h9v9H54V216M63 216h9v9H63V216M90 216h9v9H90V216M108 216h9v9H108V216M135 216h9v9H135V216M144 216h9v9H144V216M153 216h9v9H153V216M162 216h9v9H162V216M171 216h9v9H171V216M180 216h9v9H180V216M198 216h9v9H198V216M243 216h9v9H243V216M252 216h9v9H252V216M270 216h9v9H270V216M279 216h9v9H279V216M297 216h9v9H297V216M324 216h9v9H324V216M0 225h9v9H0V225M9 225h9v9H9V225M18 225h9v9H18V225M27 225h9v9H27V225M36 225h9v9H36V225M63 225h9v9H63V225M81 225h9v9H81V225M90 225h9v9H90V225M108 225h9v9H108V225M117 225h9v9H117V225M144 225h9v9H144V225M153 225h9v9H153V225M171 225h9v9H171V225M180 225h9v9H180V225M207 225h9v9H207V225M225 225h9v9H225V225M234 225h9v9H234V225M243 225h9v9H243V225M261 225h9v9H261V225M288 225h9v9H288V225M315 225h9v9H315V225M0 234h9v9H0V234M9 234h9v9H9V234M18 234h9v9H18V234M36 234h9v9H36V234M54 234h9v9H54V234M63 234h9v9H63V234M72 234h9v9H72V234M81 234h9v9H81V234M126 234h9v9H126V234M144 234h9v9H144V234M162 234h9v9H162V234M171 234h9v9H171V234M180 234h9v9H180V234M189 234h9v9H189V234M198 234h9v9H198V234M225 234h9v9H225V234M243 234h9v9H243V234M252 234h9v9H252V234M270 234h9v9H270V234M288 234h9v9H288V234M297 234h9v9H297V234M306 234h9v9H306V234M315 234h9v9H315V234M324 234h9v9H324V234M0 243h9v9H0V243M18 243h9v9H18V243M45 243h9v9H45V243M72 243h9v9H72V243M81 243h9v9H81V243M108 243h9v9H108V243M135 243h9v9H135V243M198 243h9v9H198V243M234 243h9v9H234V243M243 243h9v9H243V243M252 243h9v9H252V243M261 243h9v9H261V243M279 243h9v9H279V243M297 243h9v9H297V243M306 243h9v9H306V243M315 243h9v9H315V243M324 243h9v9H324V243M0 252h9v9H0V252M18 252h9v9H18V252M27 252h9v9H27V252M45 252h9v9H45V252M54 252h9v9H54V252M81 252h9v9H81V252M90 252h9v9H90V252M126 252h9v9H126V252M171 252h9v9H171V252M180 252h9v9H180V252M198 252h9v9H198V252M207 252h9v9H207V252M216 252h9v9H216V252M225 252h9v9H225V252M252 252h9v9H252V252M261 252h9v9H261V252M270 252h9v9H270V252M279 252h9v9H279V252M288 252h9v9H288V252M297 252h9v9H297V252M306 252h9v9H306V252M315 252h9v9H315V252M72 261h9v9H72V261M81 261h9v9H81V261M90 261h9v9H90V261M108 261h9v9H108V261M117 261h9v9H117V261M126 261h9v9H126V261M135 261h9v9H135V261M144 261h9v9H144V261M162 261h9v9H162V261M171 261h9v9H171V261M225 261h9v9H225V261M243 261h9v9H243V261M252 261h9v9H252V261M288 261h9v9H288V261M306 261h9v9H306V261M0 270h9v9H0V270M9 270h9v9H9V270M18 270h9v9H18V270M27 270h9v9H27V270M36 270h9v9H36V270M45 270h9v9H45V270M54 270h9v9H54V270M72 270h9v9H72V270M108 270h9v9H108V270M126 270h9v9H126V270M135 270h9v9H135V270M144 270h9v9H144V270M171 270h9v9H171V270M189 270h9v9H189V270M198 270h9v9H198V270M207 270h9v9H207V270M252 270h9v9H252V270M270 270h9v9H270V270M288 270h9v9H288V270M297 270h9v9H297V270M306 270h9v9H306V270M324 270h9v9H324V270M0 279h9v9H0V279M54 279h9v9H54V279M72 279h9v9H72V279M81 279h9v9H81V279M108 279h9v9H108V279M117 279h9v9H117V279M135 279h9v9H135V279M153 279h9v9H153V279M162 279h9v9H162V279M171 279h9v9H171V279M180 279h9v9H180V279M216 279h9v9H216V279M225 279h9v9H225V279M234 279h9v9H234V279M243 279h9v9H243V279M252 279h9v9H252V279M288 279h9v9H288V279M297 279h9v9H297V279M315 279h9v9H315V279M324 279h9v9H324V279M0 288h9v9H0V288M18 288h9v9H18V288M27 288h9v9H27V288M36 288h9v9H36V288M54 288h9v9H54V288M72 288h9v9H72V288M81 288h9v9H81V288M90 288h9v9H90V288M99 288h9v9H99V288M108 288h9v9H108V288M117 288h9v9H117V288M126 288h9v9H126V288M180 288h9v9H180V288M216 288h9v9H216V288M234 288h9v9H234V288M243 288h9v9H243V288M252 288h9v9H252V288M261 288h9v9H261V288M270 288h9v9H270V288M279 288h9v9H279V288M288 288h9v9H288V288M306 288h9v9H306V288M0 297h9v9H0V297M18 297h9v9H18V297M27 297h9v9H27V297M36 297h9v9H36V297M54 297h9v9H54V297M72 297h9v9H72V297M90 297h9v9H90V297M99 297h9v9H99V297M117 297h9v9H117V297M144 297h9v9H144V297M153 297h9v9H153V297M162 297h9v9H162V297M171 297h9v9H171V297M207 297h9v9H207V297M225 297h9v9H225V297M234 297h9v9H234V297M243 297h9v9H243V297M252 297h9v9H252V297M261 297h9v9H261V297M270 297h9v9H270V297M306 297h9v9H306V297M324 297h9v9H324V297M0 306h9v9H0V306M18 306h9v9H18V306M27 306h9v9H27V306M36 306h9v9H36V306M54 306h9v9H54V306M108 306h9v9H108V306M135 306h9v9H135V306M144 306h9v9H144V306M153 306h9v9H153V306M198 306h9v9H198V306M207 306h9v9H207V306M216 306h9v9H216V306M225 306h9v9H225V306M243 306h9v9H243V306M252 306h9v9H252V306M261 306h9v9H261V306M279 306h9v9H279V306M288 306h9v9H288V306M306 306h9v9H306V306M324 306h9v9H324V306M0 315h9v9H0V315M54 315h9v9H54V315M90 315h9v9H90V315M108 315h9v9H108V315M126 315h9v9H126V315M144 315h9v9H144V315M153 315h9v9H153V315M162 315h9v9H162V315M180 315h9v9H180V315M198 315h9v9H198V315M207 315h9v9H207V315M243 315h9v9H243V315M270 315h9v9H270V315M297 315h9v9H297V315M306 315h9v9H306V315M315 315h9v9H315V315M324 315h9v9H324V315M0 324h9v9H0V324M9 324h9v9H9V324M18 324h9v9H18V324M27 324h9v9H27V324M36 324h9v9H36V324M45 324h9v9H45V324M54 324h9v9H54V324M72 324h9v9H72V324M81 324h9v9H81V324M90 324h9v9H90V324M99 324h9v9H99V324M108 324h9v9H108V324M117 324h9v9H117V324M135 324h9v9H135V324M162 324h9v9H162V324M207 324h9v9H207V324M216 324h9v9H216V324M243 324h9v9H243V324M252 324h9v9H252V324M261 324h9v9H261V324M270 324h9v9H270V324M279 324h9v9H279V324M288 324h9v9H288V324M297 324h9v9H297V324M324 324h9v9H324V324"/></svg>