<?xml version="1.0" standalone="yes"?><svg xmlns="http://www.w3.org/2000/svg" version="1.1" width="333" height="333" viewBox="0 0 333 333" shape-rendering="crispEdges"><rect x="0" y="0" width="333" height="333" fill="#fff"/><path fill="#000" d="M0 0h9v9H0V0M9 0h9v9H9V0M18 0h9v9H18V0M27 0h9v9H27V0M36 0h9v9H36V0M45 0h9v9H45V0M54 0h9v9H54V0M72 0h9v9H72V0M81 0h9v9H81V0M90 0h9v9H90V0M126 0h9v9H126V0M162 0h9v9H162V0M171 0h9v9H171V0M207 0h9v9H207V0M216 0h9v9H216V0M225 0h9v9H225V0M234 0h9v9H234V0M243 0h9v9H243V0M270 0h9v9H270V0M279 0h9v9H279V0M288 0h9v9H288V0M297 0h9v9H297V0M306 0h9v9H306V0M315 0h9v9H315V0M324 0h9v9H324V0M0 9h9v9H0V9M54 9h9v9H54V9M81 9h9v9H81V9M90 9h9v9H90V9M117 9h9v9H117V9M126 9h9v9H126V9M144 9h9v9H144V9M162 9h9v9H162V9M180 9h9v9H180V9M216 9h9v9H216V9M225 9h9v9H225V9M270 9h9v9H270V9M324 9h9v9H324V9M0 18h9v9H0V18M18 18h9v9H18V18M27 18h9v9H27V18M36 18h9v9H36V18M54 18h9v9H54V18M81 18h9v9H81V18M99 18h9v9H99V18M117 18h9v9H117V18M126 18h9v9H126V18M135 18h9v9H135V18M144 18h9v9H144V18M153 18h9v9H153V18M162 18h9v9H162V18M171 18h9v9H171V18M180 18h9v9H180V18M189 18h9v9H189V18M198 18h9v9H198V18M207 18h9v9H207V18M243 18h9v9H243V18M270 18h9v9H270V18M288 18h9v9H288V18M297 18h9v9H297V18M306 18h9v9H306V18M324 18h9v9H324V18M0 27h9v9H0V27M18 27h9v9H18V27M27 27h9v9H27V27M36 27h9v9H36V27M54 27h9v9H54V27M72 27h9v9H72V27M90 27h9v9H90V27M108 27h9v9H108V27M126 27h9v9H126V27M135 27h9v9H135V27M144 27h9v9H144V27M162 27h9v9H162V27M171 27h9v9H171V27M198 27h9v9H198V27M207 27h9v9H207V27M225 27h9v9H225V27M270 27h9v9H270V27M288 27h9v9H288V27M297 27h9v9H297V27M306 27h9v9H306V27M324 27h9v9H324V27M0 36h9v9H0V36M18 36h9v9H18V36M27 36h9v9H27V36M36 36h9v9H36V36M54 36h9v9H54V36M72 36h9v9H72V36M90 36h9v9H90V36M108 36h9v9H108V36M135 36h9v9H135V36M144 36h9v9H144V36M162 36h9v9H162V36M207 36h9v9H207V36M216 36h9v9H216V36M225 36h9v9H225V36M234 36h9v9H234V36M243 36h9v9H243V36M252 36h9v9H252V36M270 36h9v9H270V36M288 36h9v9H288V36M297 36h9v9H297V36M306 36h9v9H306V36M324 36h9v9H324V36M0 45h9v9H0V45M54 45h9v9H54V45M72 45h9v9H72V45M117 45h9v9H117V45M162 45h9v9H162V45M171 45h9v9H171V45M189 45h9v9H189V45M216 45h9v9H216V45M225 45h9v9H225V45M234 45h9v9H234V45M270 45h9v9H270V45M324 45h9v9H324V45M0 54h9v9H0V54M9 54h9v9H9V54M18 54h9v9H18V54M27 54h9v9H27V54M36 54h9v9H36V54M45 54h9v9H45V54M54 54h9v9H54V54M72 54h9v9H72V54M90 54h9v9H90V54M108 54h9v9H108V54M126 54h9v9H126V54M144 54h9v9H144V54M162 54h9v9H162V54M180 54h9v9H180V54M198 54h9v9H198V54M216 54h9v9H216V54M234 54h9v9H234V54M252 54h9v9H252V54M270 54h9v9H270V54M279 54h9v9H279V54M288 54h9v9H288V54M297 54h9v9H297V54M306 54h9v9H306V54M315 54h9v9H315V54M324 54h9v9H324V54M72 63h9v9H72V63M81 63h9v9H81V63M90 63h9v9H90V63M108 63h9v9H108V63M153 63h9v9H153V63M162 63h9v9H162V63M180 63h9v9H180V63M189 63h9v9H189V63M198 63h9v9H198V63M0 72h9v9H0V72M36 72h9v9H36V72M54 72h9v9H54V72M63 72h9v9H63V72M72 72h9v9H72V72M81 72h9v9H81V72M126 72h9v9H126V72M162 72h9v9H162V72M198 72h9v9H198V72M207 72h9v9H207V72M216 72h9v9H216V72M243 72h9v9H243V72M261 72h9v9H261V72M270 72h9v9H270V72M279 72h9v9H279V72M288 72h9v9H288V72M297 72h9v9H297V72M324 72h9v9H324V72M18 81h9v9H18V81M45 81h9v9H45V81M81 81h9v9H81V81M90 81h9v9H90V81M99 81h9v9H99V81M108 81h9v9H108V81M126 81h9v9H126V81M144 81h9v9H144V81M153 81h9v9H153V81M171 81h9v9H171V81M180 81h9v9H180V81M207 81h9v9H207V81M216 81h9v9H216V81M225 81h9v9H225V81M234 81h9v9H234V81M243 81h9v9H243V81M288 81h9v9H288V81M315 81h9v9H315V81M0 90h9v9H0V90M18 90h9v9H18V90M54 90h9v9H54V90M63 90h9v9H63V90M72 90h9v9H72V90M99 90h9v9H99V90M126 90h9v9H126V90M144 90h9v9H144V90M153 90h9v9H153V90M180 90h9v9H180V90M198 90h9v9H198V90M207 90h9v9H207V90M243 90h9v9H243V90M252 90h9v9H252V90M297 90h9v9H297V90M315 90h9v9H315V90M0 99h9v9H0V99M27 99h9v9H27V99M45 99h9v9H45V99M63 99h9v9H63V99M72 99h9v9H72V99M99 99h9v9H99V99M108 99h9v9H108V99M117 99h9v9H117V99M126 99h9v9H126V99M153 99h9v9H153V99M162 99h9v9H162V99M189 99h9v9H189V99M198 99h9v9H198V99M243 99h9v9H243V99M252 99h9v9H252V99M261 99h9v9H261V99M279 99h9v9H279V99M297 99h9v9H297V99M306 99h9v9H306V99M315 99h9v9H315V99M324 99h9v9H324V99M0 108h9v9H0V108M18 108h9v9H18V108M27 108h9v9H27V108M45 108h9v9H45V108M54 108h9v9H54V108M63 108h9v9H63V108M81 108h9v9H81V108M90 108h9v9H90V108M117 108h9v9H117V108M126 108h9v9H126V108M135 108h9v9H135V108M153 108h9v9H153V108M171 108h9v9H171V108M180 108h9v9H180V108M189 108h9v9H189V108M198 108h9v9H198V108M207 108h9v9H207V108M261 108h9v9H261V108M270 108h9v9H270V108M306 108h9v9H306V108M324 108h9v9H324V108M0 117h9v9H0V117M9 117h9v9H9V117M63 117h9v9H63V117M72 117h9v9H72V117M81 117h9v9H81V117M117 117h9v9H117V117M126 117h9v9H126V117M135 117h9v9H135V117M144 117h9v9H144V117M153 117h9v9H153V117M162 117h9v9H162V117M207 117h9v9H207V117M216 117h9v9H216V117M225 117h9v9H225V117M243 117h9v9H243V117M252 117h9v9H252V117M288 117h9v9H288V117M297 117h9v9H297V117M18 126h9v9H18V126M36 126h9v9H36V126M45 126h9v9H45V126M54 126h9v9H54V126M63 126h9v9H63V126M90 126h9v9H90V126M108 126h9v9H108V126M135 126h9v9H135V126M162 126h9v9H162V126M180 126h9v9H180V126M207 126h9v9H207V126M216 126h9v9H216V126M225 126h9v9H225V126M234 126h9v9H234V126M243 126h9v9H243V126M261 126h9v9H261V126M288 126h9v9H288V126M315 126h9v9H315V126M9 135h9v9H9V135M18 135h9v9H18V135M45 135h9v9H45V135M63 135h9v9H63V135M81 135h9v9H81V135M90 135h9v9H90V135M117 135h9v9H117V135M135 135h9v9H135V135M144 135h9v9H144V135M180 135h9v9H180V135M189 135h9v9H189V135M198 135h9v9H198V135M207 135h9v9H207V135M216 135h9v9H216V135M234 135h9v9H234V135M243 135h9v9H243V135M252 135h9v9H252V135M297 135h9v9H297V135M306 135h9v9H306V135M315 135h9v9H315V135M324 135h9v9H324V135M0 144h9v9H0V144M9 144h9v9H9V144M18 144h9v9H18V144M27 144h9v9H27V144M45 144h9v9H45V144M54 144h9v9H54V144M81 144h9v9H81V144M90 144h9v9H90V144M99 144h9v9H99V144M108 144h9v9H108V144M117 144h9v9H117V144M126 144h9v9H126V144M135 144h9v9H135V144M144 144h9v9H144V144M171 144h9v9H171V144M180 144h9v9H180V144M189 144h9v9H189V144M252 144h9v9H252V144M261 144h9v9H261V144M270 144h9v9H270V144M297 144h9v9H297V144M306 144h9v9H306V144M324 144h9v9H324V144M18 153h9v9H18V153M45 153h9v9H45V153M63 153h9v9H63V153M81 153h9v9H81V153M90 153h9v9H90V153M99 153h9v9H99V153M126 153h9v9H126V153M153 153h9v9H153V153M162 153h9v9H162V153M171 153h9v9H171V153M189 153h9v9H189V153M207 153h9v9H207V153M216 153h9v9H216V153M234 153h9v9H234V153M243 153h9v9H243V153M288 153h9v9H288V153M297 153h9v9H297V153M306 153h9v9H306V153M315 153h9v9H315V153M0 162h9v9H0V162M9 162h9v9H9V162M54 162h9v9H54V162M90 162h9v9H90V162M117 162h9v9H117V162M135 162h9v9H135V162M153 162h9v9H153V162M162 162h9v9H162V162M171 162h9v9H171V162M189 162h9v9H189V162M198 162h9v9H198V162M207 162h9v9H207V162M225 162h9v9H225V162M243 162h9v9H243V162M252 162h9v9H252V162M261 162h9v9H261V162M270 162h9v9H270V162M288 162h9v9H288V162M297 162h9v9H297V162M306 162h9v9H306V162M315 162h9v9H315V162M0 171h9v9H0V171M18 171h9v9H18V171M27 171h9v9H27V171M36 171h9v9H36V171M45 171h9v9H45V171M72 171h9v9H72V171M81 171h9v9H81V171M99 171h9v9H99V171M126 171h9v9H126V171M135 171h9v9H135V171M144 171h9v9H144V171M153 171h9v9H153V171M171 171h9v9H171V171M180 171h9v9H180V171M189 171h9v9H189V171M234 171h9v9H234V171M243 171h9v9H243V171M252 171h9v9H252V171M279 171h9v9H279V171M288 171h9v9H288V171M297 171h9v9H297V171M306 171h9v9H306V171M324 171h9v9H324V171M18 180h9v9H18V180M27 180h9v9H27V180M36 180h9v9H36V180M45 180h9v9H45V180M54 180h9v9H54V180M63 180h9v9H63V180M90 180h9v9H90V180M99 180h9v9H99V180M126 180h9v9H126V180M144 180h9v9H144V180M153 180h9v9H153V180M162 180h9v9H162V180M180 180h9v9H180V180M189 180h9v9H189V180M198 180h9v9H198V180M216 180h9v9H216V180M234 180h9v9H234V180M261 180h9v9H261V180M270 180h9v9H270V180M306 180h9v9H306V180M18 189h9v9H18V189M36 189h9v9H36V189M45 189h9v9H45V189M81 189h9v9H81V189M90 189h9v9H90V189M108 189h9v9H108V189M126 189h9v9H126V189M135 189h9v9H135V189M144 189h9v9H144V189M207 189h9v9H207V189M225 189h9v9H225V189M234 189h9v9H234V189M243 189h9v9H243V189M252 189h9v9H252V189M288 189h9v9H288V189M306 189h9v9H306V189M0 198h9v9H0V198M27 198h9v9H27V198M36 198h9v9H36V198M54 198h9v9H54V198M63 198h9v9H63V198M72 198h9v9H72V198M108 198h9v9H108V198M117 198h9v9H117V198M126 198h9v9H126V198M135 198h9v9H135V198M144 198h9v9H144V198M153 198h9v9H153V198M198 198h9v9H198V198M207 198h9v9H207V198M216 198h9v9H216V198M234 198h9v9H234V198M243 198h9v9H243V198M252 198h9v9H252V198M261 198h9v9H261V198M279 198h9v9H279V198M297 198h9v9H297V198M315 198h9v9H315V198M0 207h9v9H0V207M27 207h9v9H27V207M45 207h9v9H45V207M63 207h9v9H63V207M72 207h9v9H72V207M81 207h9v9H81V207M90 207h9v9H90V207M117 207h9v9H117V207M126 207h9v9H126V207M153 207h9v9H153V207M162 207h9v9H162V207M189 207h9v9H189V207M198 207h9v9H198V207M207 207h9v9H207V207M216 207h9v9H216V207M234 207h9v9H234V207M243 207h9v9H243V207M252 207h9v9H252V207M270 207h9v9H270V207M297 207h9v9H297V207M306 207h9v9H306V207M315 207h9v9H315V207M9 216h9v9H9V216M18 216h9v9H18V216M54 216h9v9H54V216M63 216h9v9H63V216M126 216h9v9H126V216M162 216h9v9H162V216M171 216h9v9H171V216M180 216h9v9H180V216M189 216h9v9H189V216M207 216h9v9H207V216M261 216h9v9H261V216M270 216h9v9H270V216M279 216h9v9H279V216M306 216h9v9H306V216M315 216h9v9H315V216M0 225h9v9H0V225M9 225h9v9H9V225M18 225h9v9H18V225M99 225h9v9H99V225M108 225h9v9H108V225M117 225h9v9H117V225M144 225h9v9H144V225M153 225h9v9H153V225M171 225h9v9H171V225M180 225h9v9H180V225M207 225h9v9H207V225M225 225h9v9H225V225M234 225h9v9H234V225M243 225h9v9H243V225M261 225h9v9H261V225M288 225h9v9H288V225M315 225h9v9H315V225M18 234h9v9H18V234M36 234h9v9H36V234M45 234h9v9H45V234M54 234h9v9H54V234M63 234h9v9H63V234M81 234h9v9H81V234M99 234h9v9H99V234M108 234h9v9H108V234M117 234h9v9H117V234M144 234h9v9H144V234M180 234h9v9H180V234M207 234h9v9H207V234M216 234h9v9H216V234M243 234h9v9H243V234M252 234h9v9H252V234M261 234h9v9H261V234M279 234h9v9H279V234M288 234h9v9H288V234M297 234h9v9H297V234M306 234h9v9H306V234M18 243h9v9H18V243M27 243h9v9H27V243M63 243h9v9H63V243M108 243h9v9H108V243M117 243h9v9H117V243M153 243h9v9H153V243M180 243h9v9H180V243M189 243h9v9H189V243M198 243h9v9H198V243M207 243h9v9H207V243M216 243h9v9H216V243M252 243h9v9H252V243M270 243h9v9H270V243M279 243h9v9H279V243M288 243h9v9H288V243M306 243h9v9H306V243M0 252h9v9H0V252M9 252h9v9H9V252M18 252h9v9H18V252M36 252h9v9H36V252M45 252h9v9H45V252M54 252h9v9H54V252M72 252h9v9H72V252M81 252h9v9H81V252M99 252h9v9H99V252M108 252h9v9H108V252M117 252h9v9H117V252M135 252h9v9H135V252M153 252h9v9H153V252M162 252h9v9H162V252M180 252h9v9H180V252M189 252h9v9H189V252M216 252h9v9H216V252M243 252h9v9H243V252M252 252h9v9H252V252M261 252h9v9H261V252M270 252h9v9H270V252M279 252h9v9H279V252M288 252h9v9H288V252M306 252h9v9H306V252M72 261h9v9H72V261M90 261h9v9H90V261M126 261h9v9H126V261M135 261h9v9H135V261M144 261h9v9H144V261M153 261h9v9H153V261M162 261h9v9H162V261M180 261h9v9H180V261M207 261h9v9H207V261M234 261h9v9H234V261M243 261h9v9H243V261M252 261h9v9H252V261M288 261h9v9H288V261M315 261h9v9H315V261M324 261h9v9H324V261M0 270h9v9H0V270M9 270h9v9H9V270M18 270h9v9H18V270M27 270h9v9H27V270M36 270h9v9H36V270M45 270h9v9H45V270M54 270h9v9H54V270M72 270h9v9H72V270M90 270h9v9H90V270M99 270h9v9H99V270M108 270h9v9H108V270M135 270h9v9H135V270M144 270h9v9H144V270M162 270h9v9H162V270M189 270h9v9H189V270M198 270h9v9H198V270M207 270h9v9H207V270M216 270h9v9H216V270M225 270h9v9H225V270M234 270h9v9H234V270M252 270h9v9H252V270M270 270h9v9H270V270M288 270h9v9H288V270M297 270h9v9H297V270M306 270h9v9H306V270M0 279h9v9H0V279M54 279h9v9H54V279M99 279h9v9H99V279M108 279h9v9H108V279M144 279h9v9H144V279M180 279h9v9H180V279M189 279h9v9H189V279M198 279h9v9H198V279M207 279h9v9H207V279M252 279h9v9H252V279M288 279h9v9H288V279M306 279h9v9H306V279M315 279h9v9H315V279M0 288h9v9H0V288M18 288h9v9H18V288M27 288h9v9H27V288M36 288h9v9H36V288M54 288h9v9H54V288M72 288h9v9H72V288M81 288h9v9H81V288M108 288h9v9H108V288M126 288h9v9H126V288M144 288h9v9H144V288M189 288h9v9H189V288M198 288h9v9H198V288M216 288h9v9H216V288M252 288h9v9H252V288M261 288h9v9H261V288M270 288h9v9H270V288M279 288h9v9H279V288M288 288h9v9H288V288M297 288h9v9H297V288M315 288h9v9H315V288M324 288h9v9H324V288M0 297h9v9H0V297M18 297h9v9H18V297M27 297h9v9H27V297M36 297h9v9H36V297M54 297h9v9H54V297M90 297h9v9H90V297M99 297h9v9H99V297M108 297h9v9H108V297M126 297h9v9H126V297M162 297h9v9H162V297M198 297h9v9H198V297M207 297h9v9H207V297M234 297h9v9H234V297M243 297h9v9H243V297M261 297h9v9H261V297M270 297h9v9H270V297M279 297h9v9H279V297M324 297h9v9H324V297M0 306h9v9H0V306M18 306h9v9H18V306M27 306h9v9H27V306M36 306h9v9H36V306M54 306h9v9H54V306M81 306h9v9H81V306M90 306h9v9H90V306M135 306h9v9H135V306M153 306h9v9H153V306M180 306h9v9H180V306M198 306h9v9H198V306M207 306h9v9H207V306M225 306h9v9H225V306M234 306h9v9H234V306M243 306h9v9H243V306M261 306h9v9H261V306M270 306h9v9H270V306M279 306h9v9H279V306M0 315h9v9H0V315M54 315h9v9H54V315M90 315h9v9H90V315M99 315h9v9H99V315M117 315h9v9H117V315M135 315h9v9H135V315M144 315h9v9H144V315M153 315h9v9H153V315M180 315h9v9H180V315M189 315h9v9H189V315M198 315h9v9H198V315M207 315h9v9H207V315M216 315h9v9H216V315M306 315h9v9H306V315M315 315h9v9H315V315M0 324h9v9H0V324M9 324h9v9H9V324M18 324h9v9H18V324M27 324h9v9H27V324M36 324h9v9H36V324M45 324h9v9H45V324M54 324h9v9H54V324M72 324h9v9H72V324M99 324h9v9H99V324M108 324h9v9H108V324M153 324h9v9H153V324M162 324h9v9H162V324M180 324h9v9H180V324M189 324h9v9H189V324M216 324h9v9H216V324M270 324h9v9H270V324M279 324h9v9H279V324M288 324h9v9H288V324M306 324h9v9H306V324M315 324h9v9H315V324M324 324h9v9H324V324"/></svg>